<svg width="16" height="16" viewBox="0 0 16 16" fill="none" xmlns="http://www.w3.org/2000/svg">
<path d="M14.6667 1.33341L14.4669 1.53323M1.33334 14.6667L1.91912 14.081M5.33334 8.00009V5.24215C5.33334 4.69394 5.66889 4.2016 6.17914 4.00115L13.301 1.20327C13.7432 1.02956 14.2097 1.19264 14.4669 1.53323M5.33334 8.00009L9.72548 6.27461M5.33334 8.00009V10.6667M14.6667 10.6668C14.6667 11.7713 13.7712 12.6668 12.6667 12.6668C11.5621 12.6668 10.6667 11.7713 10.6667 10.6668C10.6667 9.56219 11.5621 8.66676 12.6667 8.66676C13.7712 8.66676 14.6667 9.56219 14.6667 10.6668ZM14.6667 10.6668V5.10288M9.72548 6.27461L14.4669 1.53323M9.72548 6.27461L5.33334 10.6667M4.74755 11.2525C4.38562 10.8906 3.88562 10.6668 3.33334 10.6668C2.22877 10.6668 1.33334 11.5622 1.33334 12.6668C1.33334 13.219 1.5572 13.719 1.91912 14.081M4.74755 11.2525L5.33334 10.6667M4.74755 11.2525L1.91912 14.081" stroke="#121212" stroke-width="1.33333" stroke-linecap="round" stroke-linejoin="round"/>
</svg>
