<svg width="16" height="16" viewBox="0 0 16 16" fill="none" xmlns="http://www.w3.org/2000/svg">
<path d="M5.33334 8.00009V5.24215C5.33334 4.69394 5.66889 4.2016 6.17914 4.00115L13.301 1.20327C13.957 0.945546 14.6667 1.42919 14.6667 2.13402V4.33343M5.33334 8.00009V12.6668M5.33334 8.00009L14.6667 4.33343M5.33334 12.6668C5.33334 13.7713 4.43791 14.6668 3.33334 14.6668C2.22877 14.6668 1.33334 13.7713 1.33334 12.6668C1.33334 11.5622 2.22877 10.6668 3.33334 10.6668C4.43791 10.6668 5.33334 11.5622 5.33334 12.6668ZM14.6667 4.33343V10.6668M14.6667 10.6668C14.6667 11.7713 13.7712 12.6668 12.6667 12.6668C11.5621 12.6668 10.6667 11.7713 10.6667 10.6668C10.6667 9.56219 11.5621 8.66676 12.6667 8.66676C13.7712 8.66676 14.6667 9.56219 14.6667 10.6668Z" stroke="#121212" stroke-width="1.33333" stroke-linecap="round" stroke-linejoin="round"/>
</svg>
